<svg xmlns="http://www.w3.org/2000/svg" width="40" height="40" fill="none"><g clip-path="url('#a')"><path fill="#fff" fill-rule="evenodd" d="M40 20c0 11.046-8.954 20-20 20S0 31.046 0 20 8.954 0 20 0s20 8.954 20 20m-19.284-5.234Q17.798 15.98 9.053 19.79q-1.42.565-1.488 1.105c-.076.608.686.848 1.724 1.175q.212.066.437.139c1.021.332 2.395.72 3.11.735q.97.02 2.168-.8 8.172-5.517 8.436-5.577c.125-.028.297-.064.414.04s.106.301.094.354c-.076.322-3.068 3.104-4.616 4.543-.483.449-.825.767-.895.84-.157.163-.317.317-.47.465-.95.914-1.66 1.6.039 2.72.817.538 1.47.983 2.122 1.427.712.485 1.422.969 2.341 1.571.234.154.458.313.676.468.828.591 1.573 1.122 2.492 1.037.535-.05 1.087-.552 1.367-2.05.663-3.542 1.965-11.217 2.266-14.38a3.5 3.5 0 0 0-.033-.787c-.027-.155-.083-.377-.285-.541-.24-.195-.61-.236-.775-.233-.752.013-1.906.415-7.46 2.725Z" clip-rule="evenodd"/></g><defs><clipPath id="a"><path fill="#fff" d="M0 0h40v40H0z"/></clipPath></defs></svg>