<svg xmlns="http://www.w3.org/2000/svg" width="40" height="40" fill="none"><path fill="#fff" fill-rule="evenodd" d="M19.939 0C8.929 0 0 8.93 0 19.939c0 8.807 5.75 16.269 13.578 18.96.979.122 1.346-.49 1.346-.979v-3.425c-5.505 1.224-6.728-2.69-6.728-2.69-.857-2.325-2.202-2.936-2.202-2.936-1.835-1.224.122-1.224.122-1.224 1.957.123 3.058 2.08 3.058 2.08 1.835 3.058 4.649 2.202 5.75 1.712.122-1.345.734-2.202 1.223-2.69-4.404-.49-9.052-2.203-9.052-9.91 0-2.2.734-3.913 2.08-5.381-.245-.49-.857-2.57.244-5.26 0 0 1.713-.49 5.505 2.08 1.59-.49 3.302-.612 5.015-.612 1.712 0 3.425.244 5.015.611 3.792-2.569 5.505-2.08 5.505-2.08 1.1 2.692.367 4.771.244 5.26a7.912 7.912 0 0 1 2.08 5.383c0 7.706-4.648 9.297-9.052 9.786.734.611 1.345 1.835 1.345 3.67v5.504c0 .49.367 1.101 1.346.979A19.96 19.96 0 0 0 40 19.817C39.878 8.807 30.948 0 19.939 0Z" clip-rule="evenodd"/></svg>