<svg xmlns="http://www.w3.org/2000/svg" width="40" height="40" fill="none"><path fill="#fff" d="M32.901 32.901H27.47v-8.488c0-2.037-.056-4.64-2.83-4.64-2.828 0-3.281 2.207-3.281 4.47v8.658h-5.432V15.417h5.206v2.376h.056a5.808 5.808 0 0 1 5.15-2.829c5.488 0 6.507 3.621 6.507 8.318l.056 9.62ZM9.815 13.041a3.164 3.164 0 0 1-3.169-3.17 3.164 3.164 0 0 1 3.169-3.168 3.164 3.164 0 0 1 3.168 3.168 3.164 3.164 0 0 1-3.168 3.17ZM12.53 32.9H7.099V15.417h5.432V32.9ZM35.617 1.667H4.383c-1.471 0-2.716 1.188-2.716 2.66v31.347c0 1.471 1.245 2.66 2.716 2.66h31.234c1.472 0 2.716-1.189 2.716-2.66V4.326c0-1.471-1.244-2.66-2.716-2.66Z"/></svg>