<svg xmlns="http://www.w3.org/2000/svg" width="40" height="40" fill="none"><g clip-path="url(#a)"><path fill="#fff" fill-rule="evenodd" d="M40 20c0 11.046-8.954 20-20 20S0 31.046 0 20 8.954 0 20 0s20 8.954 20 20Zm-19.284-5.234c-1.945.809-5.833 2.484-11.663 5.024-.947.376-1.443.745-1.488 1.105-.076.608.686.848 1.724 1.175.141.044.287.09.437.139 1.021.332 2.395.72 3.11.735.647.014 1.37-.253 2.168-.8 5.448-3.678 8.26-5.537 8.436-5.577.125-.028.297-.064.414.04.117.104.106.301.094.354-.076.322-3.068 3.104-4.616 4.543-.483.449-.825.767-.895.84-.157.163-.317.317-.47.465-.95.914-1.66 1.6.039 2.72.817.538 1.47.983 2.122 1.427.712.485 1.422.969 2.341 1.571.234.154.458.313.676.468.828.591 1.573 1.122 2.492 1.037.535-.05 1.087-.552 1.367-2.05.663-3.542 1.965-11.217 2.266-14.38a3.528 3.528 0 0 0-.033-.787c-.027-.155-.083-.377-.285-.541-.24-.195-.61-.236-.775-.233-.752.013-1.906.415-7.46 2.725Z" clip-rule="evenodd"/></g><defs><clipPath id="a"><path fill="#fff" d="M0 0h40v40H0z"/></clipPath></defs></svg>