<svg xmlns="http://www.w3.org/2000/svg" version="1.1" xmlns:xlink="http://www.w3.org/1999/xlink" xmlns:svgjs="http://svgjs.dev/svgjs" width="1000" height="1000"><style>
    #light-icon {
      display: inline;
    }
    #dark-icon {
      display: none;
    }

    @media (prefers-color-scheme: dark) {
      #light-icon {
        display: none;
      }
      #dark-icon {
        display: inline;
      }
    }
  </style><g id="light-icon"><svg xmlns="http://www.w3.org/2000/svg" version="1.1" xmlns:xlink="http://www.w3.org/1999/xlink" xmlns:svgjs="http://svgjs.dev/svgjs" width="1000" height="1000"><g><g transform="matrix(1.4534883720930232,0,0,1.4534883720930232,0,0)"><svg xmlns="http://www.w3.org/2000/svg" version="1.1" xmlns:xlink="http://www.w3.org/1999/xlink" xmlns:svgjs="http://svgjs.dev/svgjs" width="688" height="688"><svg width="688" height="688" viewBox="0 0 688 688" fill="none" xmlns="http://www.w3.org/2000/svg">
<rect x="343.654" width="230" height="230" transform="rotate(45 343.654 0)" fill="black"></rect>
<rect x="162.635" y="181.019" width="230" height="230" transform="rotate(45 162.635 181.019)" fill="black" fill-opacity="0.6"></rect>
<rect x="343.654" y="362.039" width="230" height="230" transform="rotate(45 343.654 362.039)" fill="black" fill-opacity="0.4"></rect>
<rect x="524.673" y="181.019" width="230" height="230" transform="rotate(45 524.673 181.019)" fill="black" fill-opacity="0.8"></rect>
</svg></svg></g></g></svg></g><g id="dark-icon"><svg xmlns="http://www.w3.org/2000/svg" version="1.1" xmlns:xlink="http://www.w3.org/1999/xlink" xmlns:svgjs="http://svgjs.dev/svgjs" width="1000" height="1000"><g clip-path="url(#SvgjsClipPath1042)"><rect width="1000" height="1000" fill="#ffffff"></rect><g transform="matrix(1.0174418604651163,0,0,1.0174418604651163,150,150)"><svg xmlns="http://www.w3.org/2000/svg" version="1.1" xmlns:xlink="http://www.w3.org/1999/xlink" xmlns:svgjs="http://svgjs.dev/svgjs" width="688" height="688"><svg width="688" height="688" viewBox="0 0 688 688" fill="none" xmlns="http://www.w3.org/2000/svg">
<rect x="343.654" width="230" height="230" transform="rotate(45 343.654 0)" fill="black"></rect>
<rect x="162.635" y="181.019" width="230" height="230" transform="rotate(45 162.635 181.019)" fill="black" fill-opacity="0.6"></rect>
<rect x="343.654" y="362.039" width="230" height="230" transform="rotate(45 343.654 362.039)" fill="black" fill-opacity="0.4"></rect>
<rect x="524.673" y="181.019" width="230" height="230" transform="rotate(45 524.673 181.019)" fill="black" fill-opacity="0.8"></rect>
</svg></svg></g></g><defs><clipPath id="SvgjsClipPath1042"><rect width="1000" height="1000" x="0" y="0" rx="350" ry="350"></rect></clipPath></defs></svg></g></svg>